:SAMPLES-PER-SECOND 30
:FULLY-SPECIFIED
:DEGREES
334
root  -0.0921904 19.2525 48.7482 56.8925 -3.34597 -8.59458
RightUpLeg  -80.9942 1.94337 16.7703
RightLeg  125.882 24.6206 -11.6268
RightFoot  -20.4027 0.06613 -0.0450069
RightToes  5.82077e-011 -3.18055e-015 -2.98177e-016
Spine  38.417 0.147522 10.8915
Spine1  -6.79119 1.71135 12.5442
HEad  -23.8109 9.92591 -0.532647
LeftShoulder1  -3.88251e-019 9.70628e-020 -3.87848e-018
LeftArm  -4.53188 -30.6052 -51.3249
LeftForeArm  -6.27585 -9.41287 -3.80666
LeftHand  -7.9758 -8.9907 60.3552
RightShoulder  5.2554 10.015 24.5073
RightArm  9.32718 12.4522 62.926
RightForeArm  24.7996 16.5191 -8.14503
RightHand  -13.2901 11.3221 -77.6525
LeftUpLeg  -38.8984 4.56183 -6.89753
LeftLeg  88.5108 -14.1925 16.7388
LeftFoot  -7.8851 0.579678 -13.1605
LeftToes  9.37148e-011 4.50685e-012 -4.11107e-011
335
root  -0.106627 19.1133 49.2866 56.2114 -2.33054 -7.31391
RightUpLeg  -80.7785 2.25548 18.018
RightLeg  122.362 28.075 -17.4378
RightFoot  -13.0186 0.0373433 -0.0448255
RightToes  5.82077e-011 -3.18055e-015 -2.98177e-016
Spine  37.6476 -0.274732 11.0893
Spine1  -5.95173 1.27848 12.3171
HEad  -24.2479 8.67231 -1.14696
LeftShoulder1  -3.88251e-019 9.70628e-020 -3.87848e-018
LeftArm  -4.50595 -29.9404 -53.7871
LeftForeArm  -4.04152 -10.0225 -3.65736
LeftHand  -8.24695 -8.9569 62.1618
RightShoulder  5.25487 9.96112 24.6042
RightArm  9.42194 10.9193 60.8592
RightForeArm  23.7532 16.6242 -7.94956
RightHand  -13.27 11.0554 -78.4677
LeftUpLeg  -36.7589 3.30016 -6.86244
LeftLeg  86.7997 -13.7459 17.4275
LeftFoot  -7.51742 0.555937 -11.7815
LeftToes  9.37148e-011 4.50685e-012 -4.11107e-011
336
root  -0.147127 18.9683 49.8692 55.6734 -0.859905 -5.83401
RightUpLeg  -78.1214 1.7307 18.1227
RightLeg  120.061 29.2682 -20.2844
RightFoot  -11.0129 0.0278521 0.266654
RightToes  5.82077e-011 -3.18055e-015 -2.98177e-016
Spine  36.4097 -0.800908 11.774
Spine1  -4.67393 0.859738 11.9673
HEad  -24.4795 6.9901 -1.56342
LeftShoulder1  -3.88251e-019 9.70628e-020 -3.87848e-018
LeftArm  -3.99236 -29.2891 -56.3799
LeftForeArm  -2.36473 -11.348 -3.74399
LeftHand  -8.44963 -9.05026 63.0569
RightShoulder  5.32677 9.98673 24.9576
RightArm  9.56542 9.35025 58.0982
RightForeArm  22.5866 16.8361 -7.87038
RightHand  -13.3867 11.0019 -79.1469
LeftUpLeg  -34.5214 1.68971 -6.48484
LeftLeg  84.7716 -13.1585 18.0463
LeftFoot  -7.7094 0.477607 -10.5595
LeftToes  9.37148e-011 4.50685e-012 -4.11107e-011
337
root  -0.220529 18.8622 50.4231 56.4427 0.524028 -5.02844
RightUpLeg  -75.577 1.94925 17.3475
RightLeg  119.142 28.1532 -19.3916
RightFoot  -13.0338 0.0364175 0.0260651
RightToes  5.82077e-011 -3.18055e-015 -2.98177e-016
Spine  34.4435 -0.839377 12.7834
Spine1  -3.72537 0.935901 11.2167
HEad  -24.3981 5.07233 -1.44934
LeftShoulder1  -3.88251e-019 9.70628e-020 -3.87848e-018
LeftArm  -2.63112 -29.478 -59.3969
LeftForeArm  -0.901418 -11.54 -4.34628
LeftHand  -8.80477 -9.26322 64.3895
RightShoulder  5.44909 10.078 25.4657
RightArm  8.25039 7.23461 55.3852
RightForeArm  22.4787 16.8103 -8.05871
RightHand  -13.7495 11.1926 -80.0145
LeftUpLeg  -33.6748 0.604419 -5.78714
LeftLeg  82.5784 -12.4657 18.8632
LeftFoot  -8.20153 0.394643 -9.73702
LeftToes  9.37148e-011 4.50685e-012 -4.11107e-011
338
root  -0.223237 18.9129 51.0217 57.5161 1.64568 -6.40945
RightUpLeg  -73.3852 3.5928 17.0077
RightLeg  118.128 25.6357 -16.4429
RightFoot  -14.1871 0.0347695 -1.2396
RightToes  5.82077e-011 -3.18055e-015 -2.98177e-016
Spine  33.4823 -0.665483 15.462
Spine1  -3.91356 2.17431 8.40437
HEad  -24.1017 3.10397 -1.23049
LeftShoulder1  -3.88251e-019 9.70628e-020 -3.87848e-018
LeftArm  -1.30564 -29.9177 -62.7806
LeftForeArm  1.06102 -10.505 -5.1359
LeftHand  -9.4535 -9.65699 66.6813
RightShoulder  5.57713 10.1547 26.0262
RightArm  5.48229 4.41433 53.2799
RightForeArm  23.5067 16.4504 -8.40068
RightHand  -14.1373 11.3577 -81.0501
LeftUpLeg  -33.1407 1.57808 -3.98223
LeftLeg  80.0642 -11.6098 19.4944
LeftFoot  -8.23539 0.371765 -9.2731
LeftToes  9.37148e-011 4.50685e-012 -4.11107e-011
339
root  -0.14298 19.028 51.7371 58.1079 2.15093 -9.5521
RightUpLeg  -71.0987 5.71348 17.329
RightLeg  116.824 22.9049 -12.8943
RightFoot  -13.6016 0.0337695 -2.03488
RightToes  5.82077e-011 -3.18055e-015 -2.98177e-016
Spine  33.8842 -0.474489 19.2264
Spine1  -4.95864 4.28285 3.52707
HEad  -23.7663 1.2191 -1.62368
LeftShoulder1  -3.88251e-019 9.70628e-020 -3.87848e-018
LeftArm  -0.73808 -29.6919 -65.8425
LeftForeArm  3.46573 -9.6828 -5.77833
LeftHand  -10.1209 -10.1568 68.5347
RightShoulder  5.7338 10.2139 26.7697
RightArm  3.87174 1.18154 51.242
RightForeArm  23.637 16.6458 -8.8724
RightHand  -14.0258 11.3102 -80.7501
LeftUpLeg  -31.6979 4.60962 -1.62195
LeftLeg  77.2063 -10.6696 19.2916
LeftFoot  -7.79542 0.383777 -8.73234
LeftToes  9.37148e-011 4.50685e-012 -4.11107e-011
340
root  -0.160571 18.9588 52.4504 59.2674 1.54441 -11.861
RightUpLeg  -69.7279 6.89542 17.0792
RightLeg  116.157 20.8996 -9.79257
RightFoot  -13.9375 0.0326861 -1.71146
RightToes  5.82077e-011 -3.18055e-015 -2.98177e-016
Spine  33.8044 0.248496 20.7014
Spine1  -6.333 6.01943 -0.612712
HEad  -23.6166 -0.220973 -2.61344
LeftShoulder1  -3.88251e-019 9.70628e-020 -3.87848e-018
LeftArm  -0.6797 -28.5794 -68.0146
LeftForeArm  5.89433 -9.72787 -6.24426
LeftHand  -10.4579 -10.4632 69.2122
RightShoulder  5.8926 10.2781 27.5076
RightArm  5.22765 -2.7396 48.9711
RightForeArm  20.968 18.3042 -9.82838
RightHand  -13.2606 11.2206 -77.8485
LeftUpLeg  -30.43 7.61114 -0.618284
LeftLeg  74.6195 -9.95807 18.322
LeftFoot  -7.67108 0.365954 -8.15272
LeftToes  9.37148e-011 4.50685e-012 -4.11107e-011
341
root  -0.408695 18.7149 53.0072 61.6267 0.351452 -11.4608
RightUpLeg  -70.0655 6.423 15.8241
RightLeg  116.165 19.9185 -8.04303
RightFoot  -15.7365 0.0115043 -1.61268
RightToes  5.82077e-011 -3.18055e-015 -2.98177e-016
Spine  32.0501 1.50647 18.3426
Spine1  -7.82686 6.38616 -1.88329
HEad  -23.7977 -0.977906 -3.36057
LeftShoulder1  -3.88251e-019 9.70628e-020 -3.87848e-018
LeftArm  -0.680114 -26.9912 -69.4124
LeftForeArm  8.27777 -9.97696 -6.55304
LeftHand  -10.558 -10.4806 69.6622
RightShoulder  5.98739 10.3313 27.9148
RightArm  7.88052 -7.66384 47.216
RightForeArm  15.8954 21.3726 -11.8778
RightHand  -12.3857 11.306 -73.7674
LeftUpLeg  -31.0112 8.27237 -1.59534
LeftLeg  73.1348 -9.72638 17.1118
LeftFoot  -7.3973 0.390925 -8.22351
LeftToes  9.37148e-011 4.50685e-012 -4.11107e-011
